# xmcd
#
# Track frame offsets: 
#        150
#        14452
#        38620
#        54725
#        73220
#        95200
#        121920
#        153285
#        177535
#        199325
#        222627
#
# Disc length: 3264 seconds
#
# Revision: 0
# Processed by: cddbd v1.4PL0 Copyright (c) Steve Scherf et al.
# Submitted via: ExactAudioCopy v0.90b4
#
DISCID=a80cbe0b
DTITLE=Mosely and Johnson - Juke Joint
DYEAR=2000
DGENRE=Blues
TTITLE0=Going to Mississippi
TTITLE1=Movin' My Outside Woman In
TTITLE2=Call Me
TTITLE3=I Want My Baby Back
TTITLE4=Last Night
TTITLE5=You Hit the Nail on the Head
TTITLE6=Hurts So Bad
TTITLE7=Love You All Night Long
TTITLE8=Let's Have Some Fun
TTITLE9=Let's Part as Friends
TTITLE10=Love Me or Leave Me
EXTD=
EXTT0=
EXTT1=
EXTT2=
EXTT3=
EXTT4=
EXTT5=
EXTT6=
EXTT7=
EXTT8=
EXTT9=
EXTT10=
PLAYORDER=
